<?xml version="1.0" standalone="no"?>
<!DOCTYPE svg PUBLIC "-//W3C//DTD SVG 20010904//EN"
 "http://www.w3.org/TR/2001/REC-SVG-20010904/DTD/svg10.dtd">
<svg version="1.0" xmlns="http://www.w3.org/2000/svg"
 width="700.000000pt" height="700.000000pt" viewBox="0 0 700.000000 700.000000"
 preserveAspectRatio="xMidYMid meet">
<metadata>
Created by potrace 1.11, written by Peter Selinger 2001-2013
</metadata>
<g transform="translate(0.000000,700.000000) scale(0.100000,-0.100000)"
fill="#000000" stroke="none">
<path d="M3338 6995 c-2 -1 -46 -5 -98 -9 -161 -10 -358 -39 -525 -77 -348
-79 -741 -240 -1050 -432 -158 -98 -287 -193 -470 -347 -66 -56 -265 -255
-325 -326 -36 -42 -78 -92 -95 -111 -60 -70 -206 -281 -280 -404 -225 -377
-386 -816 -449 -1224 -2 -16 -8 -50 -12 -75 -20 -131 -29 -272 -29 -495 1
-194 7 -329 20 -406 2 -13 6 -46 9 -74 9 -78 23 -156 51 -285 32 -150 114
-408 178 -560 218 -523 542 -965 993 -1355 88 -76 440 -325 460 -325 2 0 23
-12 46 -26 54 -34 295 -155 378 -189 291 -120 637 -215 875 -240 22 -3 51 -7
64 -10 135 -27 660 -27 851 1 339 49 635 127 905 239 76 32 352 168 400 198
11 6 68 42 127 79 321 200 648 493 883 793 208 266 386 574 510 885 57 142
131 391 165 552 27 126 28 134 34 178 3 19 10 71 16 115 38 284 32 669 -15
975 -62 397 -216 841 -403 1163 -12 20 -31 54 -43 75 -34 61 -169 262 -223
332 -336 434 -737 769 -1213 1011 -86 44 -159 79 -163 79 -5 0 -37 13 -72 29
-115 54 -450 161 -578 185 -22 4 -72 14 -160 31 -55 11 -249 36 -315 41 -69 6
-442 13 -447 9z m372 -2494 c90 -18 122 -29 240 -85 197 -91 386 -285 479
-488 82 -179 108 -345 88 -548 -25 -247 -169 -509 -372 -676 -113 -92 -283
-175 -407 -199 -10 -2 -21 -6 -26 -9 -12 -7 -141 -20 -207 -20 -204 0 -394 58
-568 171 -88 57 -229 196 -282 278 -70 107 -133 250 -149 335 -2 14 -7 36 -10
50 -23 101 -23 277 0 380 3 14 8 36 10 49 9 45 47 147 81 216 154 310 455 520
808 561 28 4 51 7 52 8 5 4 217 -14 263 -23z"/>
</g>
</svg>
