<svg xmlns="http://www.w3.org/2000/svg" viewBox="0 0 534.41 190.39"><defs><style>.cls-1{fill:#f498ed;}.cls-2{fill:#ff5039;}.cls-3{fill:#fff;}.cls-4{fill:#00e592;}</style></defs><g id="Capa_2" data-name="Capa 2"><g id="Capa_1-2" data-name="Capa 1"><path class="cls-1" d="M13.54,13.64a46.24,46.24,0,0,0,0,65.38L78.93,13.64A46.23,46.23,0,0,0,13.54,13.64Z"/><path d="M46.23,46.33,13.54,79a46.23,46.23,0,0,0,65.39,0Z"/><path class="cls-2" d="M137.48.09a46.24,46.24,0,1,0,46.23,46.24A46.24,46.24,0,0,0,137.48.09Zm0,61a14.75,14.75,0,1,1,14.74-14.75A14.75,14.75,0,0,1,137.48,61.08Z"/><polygon class="cls-3" points="235.97 61.08 235.97 0.1 204.45 0.09 204.45 61.08 204.45 92.42 204.45 92.56 249.83 92.56 249.83 61.08 235.97 61.08"/><path class="cls-1" d="M520.46,80.58a40.16,40.16,0,0,0-.1-56.76L463.74,80.58A40.08,40.08,0,0,0,520.46,80.58Z"/><circle class="cls-4" cx="313.96" cy="46.43" r="46.23" transform="translate(14.56 151.7) rotate(-27.78)"/><path class="cls-2" d="M475.43,12a40.16,40.16,0,0,0,.1,56.76L532.15,12A40.08,40.08,0,0,0,475.43,12Z"/><path class="cls-3" d="M416.33,0a27.69,27.69,0,0,0-3,.19H382V52.08h34.33a26,26,0,1,0,0-52.08Z"/><polygon points="418.12 52.08 382 52.08 382 92.53 418.12 92.53 444.41 92.34 418.12 52.08"/><path d="M117.16,189.51a26.8,26.8,0,0,1-12.38-2.82A22.42,22.42,0,0,1,96,178.9,21.9,21.9,0,0,1,96,156a22.29,22.29,0,0,1,8.76-7.79,28.69,28.69,0,0,1,24.81,0,22.3,22.3,0,0,1,8.74,7.79,22,22,0,0,1,0,22.93,22.3,22.3,0,0,1-8.74,7.79A26.89,26.89,0,0,1,117.16,189.51Zm0-10.63a11.48,11.48,0,0,0,5.76-1.47,10.79,10.79,0,0,0,4.1-4,12.53,12.53,0,0,0,0-11.89,10.89,10.89,0,0,0-4.1-4,12.15,12.15,0,0,0-11.55,0,10.88,10.88,0,0,0-4.07,4,12.53,12.53,0,0,0,0,11.89,10.78,10.78,0,0,0,4.07,4A11.49,11.49,0,0,0,117.2,178.88Z"/><path d="M162.94,189.09V162.92h-5.56v-9.45h5.56V143.16A25.74,25.74,0,0,1,164.79,133a15,15,0,0,1,5.25-6.66,14.29,14.29,0,0,1,8.24-2.33,19.3,19.3,0,0,1,5.88.91,15.1,15.1,0,0,1,4.91,2.54l-4.3,8.72a8.14,8.14,0,0,0-4.34-1.18,4.28,4.28,0,0,0-3.18,1.08,5.68,5.68,0,0,0-1.47,3,22.82,22.82,0,0,0-.38,4.4v10h9.82v9.45H175.4v26.17Z"/><path d="M248.77,190.39q-6.21,0-9.65-3.95t-3.45-11.06V157h-5.56v-9.45h5.56V132h12.45v15.58h9.13V157h-9.13v17.49a5.67,5.67,0,0,0,1,3.57,3.21,3.21,0,0,0,2.69,1.21,6.3,6.3,0,0,0,3.74-1.29l3.12,10a20.37,20.37,0,0,1-4.73,1.78A21.34,21.34,0,0,1,248.77,190.39Z"/><path d="M294.82,190.39a19.53,19.53,0,0,1-10.4-2.86,20.62,20.62,0,0,1-7.43-7.87,25.17,25.17,0,0,1-.1-22.64,20.38,20.38,0,0,1,7.28-7.87,19.73,19.73,0,0,1,10.65-2.9,20.37,20.37,0,0,1,8.26,1.68,16.35,16.35,0,0,1,6.27,4.69v-5.07H321.8v41.54H309.35v-5.47a19.8,19.8,0,0,1-6.53,5A18.56,18.56,0,0,1,294.82,190.39Zm3.7-10.59a11.13,11.13,0,0,0,5.76-1.48,10.49,10.49,0,0,0,3.93-4.08,12.08,12.08,0,0,0,1.42-5.92,11.93,11.93,0,0,0-1.44-5.94,10.72,10.72,0,0,0-3.93-4.06,11.85,11.85,0,0,0-11.47,0,10.8,10.8,0,0,0-4,4.08,12.81,12.81,0,0,0,0,11.84,10.68,10.68,0,0,0,3.95,4.08A11.14,11.14,0,0,0,298.52,179.8Z"/><path d="M347.2,189.09v-65h12.46v65Z"/><path d="M401.58,190.39a24.91,24.91,0,0,1-12.07-2.9,22.46,22.46,0,0,1-8.46-7.89,20.85,20.85,0,0,1-3.12-11.28,21.36,21.36,0,0,1,1.76-8.64,21.7,21.7,0,0,1,4.93-7,22.8,22.8,0,0,1,7.35-4.71,24,24,0,0,1,9-1.68A23.18,23.18,0,0,1,412.4,149a19.37,19.37,0,0,1,7.62,7.48,22,22,0,0,1,2.74,11.16c0,.35,0,.66,0,.91s-.06.74-.14,1.44H390.75a10.37,10.37,0,0,0,1.44,5.52,9.85,9.85,0,0,0,4,3.67,13.14,13.14,0,0,0,6,1.32,12.54,12.54,0,0,0,5.74-1.26,15.31,15.31,0,0,0,4.81-4l9,4.5a20.41,20.41,0,0,1-8.28,7.87A25.08,25.08,0,0,1,401.58,190.39ZM391.2,163.05h19.31a9.4,9.4,0,0,0-1.72-4.14,8.62,8.62,0,0,0-3.35-2.68,10.88,10.88,0,0,0-4.59-.93,11.55,11.55,0,0,0-4.78.93,8.08,8.08,0,0,0-3.33,2.68A8.66,8.66,0,0,0,391.2,163.05Z"/><path d="M444.41,189.09V147.55h12.46v4.62a17.65,17.65,0,0,1,6-4.3,19.09,19.09,0,0,1,7.93-1.62,16.52,16.52,0,0,1,8.42,2.09,14.92,14.92,0,0,1,5.7,5.8A17.47,17.47,0,0,1,487,162.8v26.29H474.52V165.44a9.77,9.77,0,0,0-2.34-7,8.32,8.32,0,0,0-6.39-2.49A9.65,9.65,0,0,0,461,157.1a7.86,7.86,0,0,0-3.09,3,8.9,8.9,0,0,0-1.07,4.37v24.58Z"/><path d="M524.56,190.39q-6.21,0-9.66-3.95t-3.45-11.06V157h-5.56v-9.45h5.56V132h12.46v15.58H533V157h-9.13v17.49a5.67,5.67,0,0,0,1,3.57,3.22,3.22,0,0,0,2.7,1.21,6.27,6.27,0,0,0,3.73-1.29l3.12,10a20.29,20.29,0,0,1-4.72,1.78A21.47,21.47,0,0,1,524.56,190.39Z"/></g></g></svg>