<?xml version="1.0" encoding="UTF-8"?><svg xmlns="http://www.w3.org/2000/svg" viewBox="0 0 534.41 190.39"><defs><style>.d{fill:#00e592;}.e{fill:#ff99fd;}.f{fill:#ff5039;}</style></defs><g id="a"/><g id="b"><g id="c"><g><g><g><path class="e" d="M13.54,13.64c-18.06,18.06-18.06,47.33,0,65.39L78.93,13.64c-18.06-18.06-47.33-18.06-65.39,0Z"/><path d="M46.23,46.33L13.54,79.02c18.05,18.06,47.33,18.06,65.38,0L46.23,46.33Z"/><path class="f" d="M137.48,.09c-25.53,0-46.24,20.7-46.24,46.23,0,25.53,20.7,46.24,46.24,46.24,25.53,0,46.23-20.7,46.23-46.23,0-25.53-20.7-46.24-46.23-46.24Zm0,60.98c-8.14,0-14.75-6.6-14.75-14.75,0-8.14,6.6-14.75,14.75-14.75,8.14,0,14.75,6.6,14.75,14.75,0,8.14-6.6,14.75-14.75,14.75Z"/><polygon class="d" points="235.97 61.08 235.97 .09 204.45 .09 204.45 61.08 204.45 92.42 204.45 92.56 249.83 92.56 249.83 61.08 235.97 61.08"/></g><g><path class="e" d="M520.46,80.58c15.63-15.68,15.59-41.09-.1-56.77l-56.62,56.77c15.69,15.68,41.09,15.68,56.72,0Z"/><circle class="e" cx="313.96" cy="46.43" r="46.23" transform="translate(14.56 151.7) rotate(-27.78)"/><path class="f" d="M475.43,11.95c-15.64,15.68-15.59,41.09,.1,56.77l56.62-56.77c-15.69-15.68-41.09-15.68-56.72,0Z"/><path class="d" d="M416.33,0c-1.03,0-2.03,.08-3.03,.19h-31.3V52.08h34.33c14.38,0,26.04-11.66,26.04-26.04,0-14.38-11.66-26.04-26.04-26.04Z"/><polygon points="418.12 52.08 382 52.08 382 92.53 418.12 92.53 444.41 92.34 418.12 52.08"/></g></g><path d="M117.16,189.51c-4.57,0-8.7-.94-12.37-2.82-3.68-1.88-6.6-4.48-8.76-7.79-2.16-3.31-3.25-7.13-3.25-11.46,0-4.33,1.08-8.15,3.23-11.46,2.15-3.31,5.07-5.91,8.76-7.79,3.69-1.88,7.82-2.82,12.4-2.82,4.6,0,8.74,.94,12.42,2.82,3.68,1.88,6.59,4.48,8.74,7.79,2.15,3.31,3.23,7.13,3.23,11.46,0,4.33-1.08,8.15-3.23,11.46-2.15,3.31-5.07,5.91-8.74,7.79-3.68,1.88-7.82,2.82-12.42,2.82Zm.04-10.63c2.11,0,4.03-.49,5.76-1.46,1.73-.97,3.1-2.32,4.1-4.04,1-1.72,1.5-3.7,1.5-5.94,0-2.24-.5-4.23-1.5-5.94-1-1.72-2.37-3.06-4.1-4.04-1.73-.97-3.65-1.46-5.76-1.46-2.14,0-4.06,.49-5.78,1.46-1.72,.97-3.08,2.32-4.08,4.04-1,1.72-1.5,3.7-1.5,5.94,0,2.25,.5,4.23,1.5,5.94,1,1.72,2.36,3.06,4.08,4.04,1.72,.97,3.64,1.46,5.78,1.46Z"/><path d="M162.94,189.09v-26.17h-5.56v-9.45h5.56v-10.31c0-3.9,.61-7.28,1.85-10.16,1.23-2.88,2.98-5.1,5.25-6.65,2.27-1.56,5.02-2.33,8.24-2.33,2,0,3.96,.3,5.88,.91,1.92,.61,3.56,1.45,4.91,2.54l-4.3,8.72c-1.27-.78-2.72-1.18-4.34-1.18-1.41,0-2.47,.36-3.18,1.08-.72,.72-1.2,1.7-1.46,2.96-.26,1.26-.39,2.73-.39,4.4v10.02h9.82v9.45h-9.82v26.17h-12.46Z"/><path d="M248.77,190.39c-4.14,0-7.36-1.32-9.66-3.96-2.3-2.64-3.45-6.32-3.45-11.06v-18.38h-5.56v-9.45h5.56v-15.58h12.46v15.58h9.13v9.45h-9.13v17.49c0,1.57,.32,2.76,.95,3.57,.64,.81,1.53,1.22,2.7,1.22,1.3,0,2.54-.43,3.73-1.3l3.12,9.98c-1.41,.76-2.98,1.35-4.73,1.79-1.74,.43-3.46,.65-5.13,.65Z"/><path d="M294.82,190.39c-3.81,0-7.28-.95-10.41-2.86-3.12-1.91-5.6-4.53-7.42-7.87-1.83-3.34-2.74-7.15-2.74-11.42,0-4.16,.88-7.9,2.64-11.22,1.76-3.31,4.19-5.94,7.28-7.87,3.1-1.93,6.65-2.9,10.65-2.9,2.95,0,5.7,.56,8.26,1.68,2.56,1.12,4.65,2.68,6.27,4.69v-5.07h12.46v41.55h-12.46v-5.48c-1.89,2.19-4.07,3.87-6.53,5.03-2.46,1.16-5.13,1.74-7.99,1.74Zm3.69-10.59c2.16,0,4.08-.49,5.76-1.48,1.68-.99,2.99-2.35,3.94-4.08,.95-1.73,1.42-3.71,1.42-5.92,0-2.24-.48-4.23-1.44-5.94-.96-1.72-2.27-3.07-3.94-4.06-1.66-.99-3.58-1.48-5.74-1.48-2.14,0-4.04,.49-5.72,1.48-1.68,.99-3,2.35-3.98,4.08-.97,1.73-1.46,3.71-1.46,5.92,0,2.22,.48,4.19,1.44,5.92,.96,1.73,2.28,3.09,3.96,4.08,1.68,.99,3.6,1.48,5.76,1.48Z"/><path d="M347.2,189.09V124.05h12.46v65.04h-12.46Z"/><path d="M401.58,190.39c-4.49,0-8.51-.97-12.07-2.9-3.56-1.93-6.38-4.56-8.46-7.89-2.08-3.33-3.12-7.09-3.12-11.28,0-3.08,.59-5.96,1.76-8.64,1.18-2.68,2.82-5.02,4.93-7.04,2.11-2.01,4.56-3.58,7.34-4.71,2.79-1.12,5.8-1.68,9.05-1.68,4.33,0,8.12,.9,11.38,2.7,3.26,1.8,5.8,4.29,7.63,7.49,1.83,3.19,2.74,6.91,2.74,11.16,0,.35,0,.66-.02,.91-.01,.26-.06,.74-.14,1.44h-31.85c0,2.11,.48,3.95,1.44,5.52,.96,1.57,2.31,2.79,4.04,3.67,1.73,.88,3.75,1.32,6.05,1.32,2.16,0,4.08-.42,5.74-1.26,1.66-.84,3.27-2.18,4.81-4.02l8.97,4.5c-1.95,3.35-4.71,5.98-8.28,7.87-3.57,1.89-7.55,2.84-11.93,2.84Zm-10.39-27.35h19.31c-.27-1.6-.85-2.98-1.72-4.14-.88-1.16-1.99-2.06-3.35-2.68-1.35-.62-2.88-.93-4.58-.93-1.81,0-3.41,.31-4.79,.93-1.38,.62-2.49,1.51-3.33,2.68-.84,1.16-1.35,2.54-1.54,4.14Z"/><path d="M444.41,189.09v-41.55h12.46v4.63c1.6-1.79,3.59-3.22,5.98-4.3,2.39-1.08,5.04-1.62,7.93-1.62,3.19,0,6,.7,8.42,2.09,2.42,1.39,4.32,3.33,5.7,5.8,1.38,2.48,2.07,5.36,2.07,8.66v26.29h-12.46v-23.65c0-2.98-.78-5.29-2.33-6.96-1.56-1.66-3.69-2.5-6.39-2.5-1.84,0-3.43,.37-4.77,1.12-1.34,.74-2.37,1.76-3.08,3.04-.72,1.29-1.08,2.74-1.08,4.36v24.59h-12.46Z"/><path d="M524.56,190.39c-4.14,0-7.36-1.32-9.66-3.96-2.3-2.64-3.45-6.32-3.45-11.06v-18.38h-5.56v-9.45h5.56v-15.58h12.46v15.58h9.13v9.45h-9.13v17.49c0,1.57,.32,2.76,.95,3.57,.64,.81,1.53,1.22,2.7,1.22,1.3,0,2.54-.43,3.73-1.3l3.12,9.98c-1.41,.76-2.98,1.35-4.73,1.79-1.74,.43-3.46,.65-5.13,.65Z"/></g></g></g></svg>