<?xml version="1.0" encoding="utf-8"?>
<!-- Generator: Adobe Illustrator 25.0.0, SVG Export Plug-In . SVG Version: 6.00 Build 0)  -->
<svg version="1.1" id="Warstwa_1" xmlns="http://www.w3.org/2000/svg" xmlns:xlink="http://www.w3.org/1999/xlink" x="0px" y="0px"
	 viewBox="0 0 381.6 135.6" style="enable-background:new 0 0 381.6 135.6;" xml:space="preserve">
<style type="text/css">
	.st0{fill:#FF560B;}
	.st1{fill:#DB91D4;}
	.st2{fill:#08D58E;}
</style>
<path class="st0" d="M98.6,65.5c-18,0-32.6-14.6-32.6-32.6S80.7,0.3,98.6,0.3c18,0,32.6,14.6,32.6,32.6c0,0,0,0,0,0
	C131.2,50.9,116.6,65.5,98.6,65.5z M98.6,23.4c-5.3,0-9.5,4.3-9.5,9.5c0,5.3,4.3,9.5,9.5,9.5c5.3,0,9.5-4.3,9.5-9.5c0,0,0,0,0,0
	C108.2,27.6,103.9,23.4,98.6,23.4z"/>
<path class="st1" d="M257.1,32.9c0,18-14.6,32.6-32.6,32.6S191.9,50.9,192,32.9c0-18,14.6-32.6,32.6-32.6
	C242.5,0.3,257.1,14.9,257.1,32.9z"/>
<path d="M55.6,56C42.9,68.7,22.3,68.7,9.5,56l23.1-23L55.6,56z"/>
<path class="st1" d="M55.6,9.8l-23,23.1L9.5,56C-3.2,43.2-3.2,22.6,9.6,9.8C22.3-2.9,42.9-2.9,55.6,9.8z"/>
<g>
	<path class="st0" d="M380.6,8.4l-40.4,40.4c-11.2-11.2-11.2-29.2,0-40.4S369.5-2.8,380.6,8.4C380.6,8.4,380.6,8.4,380.6,8.4z"/>
	<path class="st1" d="M331.9,57.1l40.4-40.4c11.2,11.2,11.2,29.2,0,40.4S343.1,68.2,331.9,57.1C331.9,57.1,331.9,57.1,331.9,57.1z"
		/>
</g>
<path d="M298.5,37.9h-25.3v27.6h44.1l-18.7-27.6C298.6,37.9,298.6,37.9,298.5,37.9z"/>
<path class="st2" d="M317.3,19.1c0,10.3-8.4,18.8-18.7,18.8c0,0-0.1,0-0.1,0h-25.4V0.3h25.4C308.9,0.3,317.3,8.7,317.3,19.1z"/>
<polygon class="st2" points="179.7,47.4 179.7,65.4 147.6,65.4 147.6,0.3 170.1,0.3 170.1,47.4 "/>
<path d="M84,135.6c-3.2,0-6.3-0.7-9.1-2.1c-2.6-1.3-4.8-3.3-6.4-5.7c-3.2-5.2-3.2-11.7,0-16.8c1.6-2.4,3.8-4.4,6.4-5.7
	c5.8-2.8,12.5-2.8,18.2,0c2.6,1.3,4.8,3.3,6.4,5.7c3.2,5.2,3.2,11.7,0,16.8c-1.6,2.4-3.8,4.4-6.4,5.7C90.3,135,87.1,135.7,84,135.6z
	 M84,127.8c1.5,0,2.9-0.4,4.2-1.1c1.3-0.7,2.3-1.7,3-3c1.5-2.7,1.5-6,0-8.7c-0.7-1.2-1.8-2.3-3-3c-2.6-1.4-5.8-1.4-8.5,0
	c-1.2,0.7-2.3,1.7-3,3c-1.5,2.7-1.5,6,0,8.7c0.7,1.2,1.7,2.3,3,3C81.1,127.5,82.5,127.8,84,127.8L84,127.8z"/>
<path d="M116.7,134.7v-23.6h-4.1v-6.9h4.1v-2c-0.1-2.6,0.4-5.1,1.4-7.5c0.8-2,2.1-3.7,3.9-4.9c1.8-1.2,3.9-1.8,6.1-1.7
	c1.5,0,2.9,0.2,4.3,0.7c1.3,0.4,2.5,1,3.6,1.9l-3.2,6.4c-1-0.6-2.1-0.9-3.2-0.9c-0.9-0.1-1.7,0.2-2.3,0.8c-0.6,0.6-0.9,1.4-1.1,2.2
	c-0.2,1.1-0.3,2.2-0.3,3.2v1.8h7.2v6.9h-7.2v23.6L116.7,134.7z"/>
<path d="M177.8,135.6c-2.7,0.2-5.3-0.9-7.1-2.9c-1.7-1.9-2.5-4.6-2.5-8.1v-13.5h-4.1v-6.9h4.1V92.7h9.2v11.4h6.7v6.9h-6.7v12.9
	c-0.1,0.9,0.2,1.9,0.7,2.6c0.5,0.6,1.2,0.9,2,0.9c1,0,2-0.3,2.7-1l2.3,7.3c-1.1,0.6-2.3,1-3.5,1.3
	C180.3,135.5,179.1,135.6,177.8,135.6z"/>
<path d="M211.2,135.6c-2.7,0-5.3-0.7-7.6-2.1c-2.3-1.4-4.2-3.4-5.5-5.8c-2.7-5.2-2.7-11.4-0.1-16.6c1.2-2.4,3.1-4.4,5.4-5.8
	c2.4-1.4,5.1-2.2,7.8-2.1c2.1,0,4.2,0.4,6.1,1.2c1.8,0.8,3.4,1.9,4.6,3.4v-3.7h9.2v30.5h-9.2v-4c-1.3,1.6-3,2.8-4.8,3.7
	C215.2,135.2,213.2,135.6,211.2,135.6z M213.9,127.8c1.5,0,2.9-0.3,4.2-1.1c1.2-0.7,2.2-1.8,2.9-3c0.7-1.3,1.1-2.8,1-4.4
	c0-1.5-0.3-3-1.1-4.4c-0.7-1.2-1.7-2.3-2.9-3c-2.6-1.4-5.8-1.4-8.4,0c-1.2,0.7-2.2,1.8-2.9,3c-0.7,1.3-1.1,2.8-1.1,4.4
	c0,1.5,0.3,3,1.1,4.4c0.7,1.2,1.7,2.3,2.9,3C211,127.5,212.4,127.9,213.9,127.8L213.9,127.8z"/>
<path d="M247.5,134.7V88h9.2v46.6H247.5z"/>
<path d="M287.7,135.6c-3.1,0.1-6.1-0.7-8.9-2.1c-2.5-1.4-4.7-3.4-6.2-5.8c-1.5-2.5-2.3-5.4-2.3-8.3c0-2.2,0.4-4.3,1.3-6.4
	c0.9-1.9,2.1-3.7,3.6-5.2c1.6-1.5,3.4-2.7,5.4-3.5c2.1-0.8,4.4-1.3,6.6-1.2c2.9-0.1,5.8,0.6,8.4,2c2.3,1.3,4.3,3.2,5.6,5.5
	c1.4,2.5,2.1,5.3,2,8.2c0,0.3,0,0.5,0,0.7c0,0.2,0,0.5-0.1,1.1h-23.4c0,1.4,0.3,2.8,1.1,4.1c0.7,1.2,1.7,2.1,3,2.7
	c1.4,0.7,2.9,1,4.4,1c1.5,0,2.9-0.3,4.2-0.9c1.4-0.7,2.6-1.7,3.5-3l6.6,3.3c-1.4,2.5-3.5,4.5-6.1,5.8
	C293.8,135,290.8,135.7,287.7,135.6z M280.1,115.5h14.2c-0.2-1.1-0.6-2.1-1.3-3c-0.6-0.9-1.5-1.5-2.5-2c-1.1-0.5-2.2-0.7-3.4-0.7
	c-1.2,0-2.4,0.2-3.5,0.7c-1,0.4-1.8,1.1-2.4,2C280.6,113.4,280.2,114.4,280.1,115.5L280.1,115.5z"/>
<path d="M317.1,134.7v-30.5h9.2v3.4c1.2-1.4,2.7-2.4,4.4-3.2c1.8-0.8,3.8-1.2,5.8-1.2c2.2,0,4.3,0.5,6.2,1.5c1.8,1,3.2,2.5,4.2,4.3
	c1,2,1.6,4.1,1.5,6.4v19.3h-9.2v-17.4c0.1-1.9-0.5-3.7-1.7-5.1c-1.2-1.3-2.9-1.9-4.7-1.8c-1.2,0-2.4,0.3-3.5,0.8
	c-1,0.5-1.7,1.3-2.3,2.2c-0.5,1-0.8,2.1-0.8,3.2v18.1H317.1z"/>
<path d="M374.4,135.6c-2.7,0.2-5.3-0.9-7.1-2.9c-1.7-1.9-2.5-4.6-2.5-8.1v-13.5h-4.1v-6.9h4.1V92.7h9.2v11.4h6.7v6.9h-6.7v12.9
	c-0.1,0.9,0.2,1.9,0.7,2.6c0.5,0.6,1.2,0.9,2,0.9c1,0,2-0.3,2.7-1l2.3,7.3c-1.1,0.6-2.3,1-3.5,1.3
	C376.9,135.5,375.7,135.6,374.4,135.6z"/>
</svg>
