<?xml version="1.0" encoding="UTF-8"?><svg xmlns="http://www.w3.org/2000/svg" viewBox="0 0 519.4 469.49"><defs><style>.d{fill:#0af;}.e{fill:#ff99fd;}.f{fill:#ff5039;}</style></defs><g id="a"/><g id="b"><g id="c"><g><rect x="244.95" y="284.54" width="35.72" height="334.18" transform="translate(-188.82 714.44) rotate(-90)"/><rect class="e" x="244.95" y="272.72" width="35.72" height="286.37" transform="translate(-153.1 678.72) rotate(-90)"/><rect class="f" x="119.63" y="110.73" width="35.72" height="71.61"/><rect class="f" x="203.3" y="110.73" width="35.72" height="71.61"/><rect class="f" x="286.97" y="110.73" width="35.72" height="71.61"/><rect class="f" x="370.65" y="110.73" width="35.72" height="71.61"/><rect class="e" x="244.95" y="-74.22" width="35.72" height="334.18" transform="translate(169.94 355.69) rotate(-90)"/><polygon class="d" points="263.93 0 155.34 110.73 371.63 110.73 263.93 0"/><g><path d="M36.3,282c-2.94,0-5.65-.33-8.13-.98-2.48-.65-4.7-1.47-6.65-2.45-1.96-.98-3.64-2-5.04-3.05-1.41-1.05-2.52-1.97-3.34-2.76l6.37-10.28c.84,.74,1.85,1.57,3.03,2.49,1.18,.92,2.49,1.8,3.95,2.63,1.46,.83,3.04,1.52,4.74,2.07,1.7,.55,3.51,.82,5.43,.82,1.79,0,3.37-.28,4.74-.84,1.37-.56,2.45-1.4,3.24-2.51,.79-1.11,1.19-2.5,1.19-4.16,0-1.51-.32-2.79-.96-3.85-.64-1.06-1.58-2.02-2.82-2.88-1.24-.86-2.76-1.7-4.56-2.53-1.8-.83-3.86-1.75-6.16-2.74-1.71-.77-3.34-1.64-4.89-2.63-1.55-.98-2.92-2.13-4.12-3.43-1.2-1.3-2.15-2.78-2.86-4.43-.7-1.65-1.05-3.5-1.05-5.54,0-2.43,.49-4.76,1.46-6.98,.97-2.22,2.36-4.21,4.16-5.94,1.8-1.74,3.95-3.12,6.44-4.14,2.49-1.02,5.27-1.53,8.34-1.53,2.3,0,4.6,.31,6.9,.92,2.3,.61,4.45,1.42,6.44,2.42,1.99,1,3.68,2.08,5.06,3.26l-5.18,9.74c-1.1-.95-2.35-1.8-3.74-2.55-1.39-.75-2.88-1.36-4.45-1.82s-3.16-.69-4.78-.69c-1.82,0-3.36,.32-4.62,.96-1.27,.64-2.24,1.49-2.91,2.55-.68,1.06-1.02,2.24-1.02,3.55,0,1.07,.22,1.99,.67,2.74,.45,.75,1.08,1.41,1.9,1.96,.82,.55,1.8,1.07,2.95,1.57,1.15,.5,2.42,1.03,3.8,1.59,2.97,1.25,5.65,2.49,8.05,3.72,2.4,1.23,4.46,2.59,6.18,4.08,1.71,1.5,3.02,3.24,3.93,5.24,.91,1.99,1.36,4.37,1.36,7.13,0,4.04-.97,7.5-2.9,10.39-1.93,2.89-4.62,5.1-8.07,6.62s-7.48,2.28-12.08,2.28Z"/><path d="M72.09,280.77v-63.29h35.21v10.89h-22.78v15.23h21.86v10.89h-21.86v15.38h22.78v10.89h-35.21Zm15.61-66.51l-4.99-4.07,10.62-16.91,7.9,5.95-13.54,15.04Z"/><path d="M166.17,282c-7.93,0-13.92-1.99-17.99-5.96-4.07-3.98-6.1-9.88-6.1-17.7v-40.85h12.43v37.28c0,5.34,.91,9.19,2.74,11.53,1.83,2.34,4.8,3.51,8.92,3.51s7.09-1.17,8.92-3.51c1.83-2.34,2.74-6.18,2.74-11.53v-37.28h12.43v40.85c0,7.82-2.03,13.73-6.08,17.7-4.05,3.98-10.06,5.96-18.01,5.96Z"/><path d="M206.48,280.77v-63.29h12.43l27.27,42.57v-42.57h12.43v63.29h-12.43l-27.27-42.57v42.57h-12.43Z"/><path d="M296.54,280.77v-63.29h17.38c4.5,0,8.68,.81,12.54,2.42,3.86,1.61,7.24,3.86,10.14,6.75,2.9,2.89,5.17,6.25,6.79,10.09,1.62,3.84,2.44,7.98,2.44,12.43s-.8,8.62-2.42,12.45c-1.61,3.82-3.87,7.17-6.77,10.05-2.9,2.88-6.29,5.11-10.16,6.71-3.87,1.6-8.06,2.4-12.56,2.4h-17.38Zm12.43-11.12h3.57c2.86,0,5.51-.51,7.94-1.53,2.43-1.02,4.54-2.45,6.33-4.3,1.79-1.84,3.18-4.01,4.18-6.5,1-2.49,1.5-5.22,1.5-8.19s-.5-5.66-1.5-8.15c-1-2.49-2.39-4.67-4.18-6.52-1.79-1.85-3.9-3.29-6.33-4.32-2.43-1.02-5.08-1.53-7.94-1.53h-3.57v41.04Z"/><path d="M358.37,280.77v-63.29h12.43v63.29h-12.43Z"/><path d="M415.4,282c-4.42,0-8.57-.84-12.43-2.53-3.86-1.69-7.25-4.03-10.16-7.04-2.91-3-5.2-6.49-6.85-10.47-1.65-3.98-2.47-8.24-2.47-12.79s.82-8.82,2.47-12.79c1.65-3.98,3.93-7.47,6.85-10.47,2.91-3,6.3-5.35,10.16-7.04,3.86-1.69,8-2.53,12.43-2.53s8.57,.84,12.43,2.53c3.86,1.69,7.25,4.03,10.16,7.04,2.91,3,5.2,6.5,6.85,10.47,1.65,3.98,2.47,8.24,2.47,12.79s-.82,8.82-2.47,12.79c-1.65,3.98-3.93,7.47-6.85,10.47-2.91,3.01-6.3,5.35-10.16,7.04-3.86,1.69-8,2.53-12.43,2.53Zm-.04-11.97c2.71,0,5.19-.51,7.44-1.53,2.25-1.02,4.21-2.47,5.87-4.33,1.66-1.87,2.95-4.07,3.87-6.62,.92-2.54,1.38-5.34,1.38-8.38s-.46-5.84-1.38-8.38c-.92-2.54-2.21-4.75-3.87-6.62-1.66-1.87-3.62-3.31-5.87-4.33-2.25-1.02-4.73-1.53-7.44-1.53s-5.12,.51-7.38,1.53c-2.26,1.02-4.23,2.47-5.89,4.33-1.66,1.87-2.95,4.07-3.85,6.62-.91,2.54-1.36,5.34-1.36,8.38s.45,5.84,1.36,8.38c.91,2.54,2.19,4.75,3.85,6.62,1.66,1.87,3.62,3.31,5.89,4.33,2.26,1.02,4.72,1.53,7.38,1.53Z"/><path d="M476.43,282c-2.94,0-5.65-.33-8.13-.98-2.48-.65-4.7-1.47-6.65-2.45-1.96-.98-3.64-2-5.04-3.05-1.41-1.05-2.52-1.97-3.34-2.76l6.37-10.28c.84,.74,1.85,1.57,3.03,2.49,1.18,.92,2.49,1.8,3.95,2.63,1.46,.83,3.04,1.52,4.74,2.07,1.7,.55,3.51,.82,5.43,.82,1.79,0,3.37-.28,4.74-.84,1.37-.56,2.45-1.4,3.24-2.51,.79-1.11,1.19-2.5,1.19-4.16,0-1.51-.32-2.79-.96-3.85-.64-1.06-1.58-2.02-2.82-2.88-1.24-.86-2.76-1.7-4.56-2.53-1.8-.83-3.86-1.75-6.16-2.74-1.71-.77-3.34-1.64-4.89-2.63-1.55-.98-2.92-2.13-4.12-3.43-1.2-1.3-2.15-2.78-2.86-4.43-.7-1.65-1.05-3.5-1.05-5.54,0-2.43,.49-4.76,1.46-6.98,.97-2.22,2.36-4.21,4.16-5.94,1.8-1.74,3.95-3.12,6.44-4.14,2.49-1.02,5.27-1.53,8.34-1.53,2.3,0,4.6,.31,6.9,.92,2.3,.61,4.45,1.42,6.44,2.42,1.99,1,3.68,2.08,5.06,3.26l-5.18,9.74c-1.1-.95-2.35-1.8-3.74-2.55-1.39-.75-2.88-1.36-4.45-1.82s-3.16-.69-4.78-.69c-1.82,0-3.36,.32-4.62,.96-1.27,.64-2.24,1.49-2.91,2.55-.68,1.06-1.02,2.24-1.02,3.55,0,1.07,.22,1.99,.67,2.74,.45,.75,1.08,1.41,1.9,1.96,.82,.55,1.8,1.07,2.95,1.57,1.15,.5,2.42,1.03,3.8,1.59,2.97,1.25,5.65,2.49,8.05,3.72,2.4,1.23,4.46,2.59,6.18,4.08,1.71,1.5,3.02,3.24,3.93,5.24,.91,1.99,1.36,4.37,1.36,7.13,0,4.04-.97,7.5-2.9,10.39-1.93,2.89-4.62,5.1-8.07,6.62s-7.48,2.28-12.08,2.28Z"/><path d="M0,364.26v-63.29H17.38c4.5,0,8.68,.81,12.54,2.42,3.86,1.61,7.24,3.86,10.14,6.75,2.9,2.89,5.17,6.25,6.79,10.09,1.62,3.84,2.44,7.98,2.44,12.43s-.8,8.62-2.42,12.45c-1.61,3.82-3.87,7.17-6.77,10.05-2.9,2.88-6.29,5.11-10.16,6.71-3.87,1.6-8.06,2.4-12.56,2.4H0Zm12.43-11.12h3.57c2.86,0,5.51-.51,7.94-1.53,2.43-1.02,4.54-2.45,6.33-4.3,1.79-1.84,3.18-4.01,4.18-6.5,1-2.49,1.5-5.22,1.5-8.19s-.5-5.66-1.5-8.15c-1-2.49-2.39-4.67-4.18-6.52-1.79-1.85-3.9-3.29-6.33-4.31-2.43-1.02-5.08-1.53-7.94-1.53h-3.57v41.04Z"/><path d="M61.83,364.26v-63.29h35.21v10.89h-22.78v15.23h21.86v10.89h-21.86v15.38h22.78v10.89H61.83Z"/><path d="M112.23,364.26v-63.29h12.43v52.39h22.86v10.89h-35.29Z"/><path d="M205.62,365.49c-4.42,0-8.57-.84-12.43-2.53s-7.25-4.03-10.16-7.04c-2.91-3-5.2-6.49-6.85-10.47-1.65-3.98-2.47-8.24-2.47-12.79s.82-8.81,2.47-12.79c1.65-3.98,3.93-7.47,6.85-10.47,2.91-3,6.3-5.35,10.16-7.04s8-2.53,12.43-2.53,8.57,.84,12.43,2.53c3.86,1.69,7.25,4.03,10.16,7.04,2.91,3.01,5.2,6.5,6.85,10.47,1.65,3.98,2.47,8.24,2.47,12.79s-.82,8.82-2.47,12.79c-1.65,3.98-3.93,7.47-6.85,10.47-2.91,3-6.3,5.35-10.16,7.04-3.86,1.69-8,2.53-12.43,2.53Zm-.04-11.97c2.71,0,5.19-.51,7.44-1.53,2.25-1.02,4.21-2.47,5.87-4.33,1.66-1.87,2.95-4.07,3.87-6.62,.92-2.54,1.38-5.34,1.38-8.38s-.46-5.84-1.38-8.38c-.92-2.54-2.21-4.75-3.87-6.62-1.66-1.87-3.62-3.31-5.87-4.33-2.25-1.02-4.73-1.53-7.44-1.53s-5.12,.51-7.38,1.53c-2.26,1.02-4.23,2.47-5.89,4.33-1.66,1.87-2.95,4.07-3.85,6.62-.91,2.54-1.36,5.34-1.36,8.38s.45,5.84,1.36,8.38c.91,2.54,2.19,4.75,3.85,6.62,1.66,1.87,3.62,3.31,5.89,4.33,2.26,1.02,4.72,1.53,7.38,1.53Z"/><path d="M250.15,364.26v-63.29h12.43v52.39h22.86v10.89h-35.29Z"/><path d="M295.56,364.26v-63.29h12.43v63.29h-12.43Z"/><path d="M322.37,364.26l6.29-63.29h13.19l15.11,39.58,15.11-39.58h13.19l6.29,63.29h-12.43l-3.91-40.96-14.46,39.39h-7.63l-14.42-39.39-3.95,40.96h-12.39Z"/><path d="M405.87,364.26v-63.29h21.56c4.12,0,7.77,.72,10.97,2.15,3.2,1.43,5.72,3.56,7.56,6.39,1.84,2.83,2.76,6.35,2.76,10.57s-.92,7.77-2.76,10.74c-1.84,2.97-4.36,5.24-7.56,6.81-3.2,1.57-6.85,2.36-10.97,2.36h-9.13v24.28h-12.43Zm12.43-34.21h5.29c2.17,0,4.17-.32,6-.96,1.83-.64,3.3-1.66,4.43-3.07,1.12-1.41,1.69-3.26,1.69-5.56s-.56-4.19-1.69-5.58c-1.13-1.39-2.6-2.4-4.43-3.03-1.83-.63-3.83-.94-6-.94h-5.29v19.14Z"/><path d="M487.49,365.49c-4.42,0-8.57-.84-12.43-2.53-3.86-1.69-7.25-4.03-10.16-7.04-2.91-3-5.2-6.49-6.85-10.47-1.65-3.98-2.47-8.24-2.47-12.79s.82-8.81,2.47-12.79c1.65-3.98,3.93-7.47,6.85-10.47,2.91-3,6.3-5.35,10.16-7.04,3.86-1.69,8-2.53,12.43-2.53s8.57,.84,12.43,2.53c3.86,1.69,7.25,4.03,10.16,7.04,2.91,3.01,5.2,6.5,6.85,10.47,1.65,3.98,2.47,8.24,2.47,12.79s-.82,8.82-2.47,12.79c-1.65,3.98-3.93,7.47-6.85,10.47-2.91,3-6.3,5.35-10.16,7.04-3.86,1.69-8,2.53-12.43,2.53Zm-.04-11.97c2.71,0,5.19-.51,7.44-1.53,2.25-1.02,4.21-2.47,5.87-4.33,1.66-1.87,2.95-4.07,3.87-6.62,.92-2.54,1.38-5.34,1.38-8.38s-.46-5.84-1.38-8.38c-.92-2.54-2.21-4.75-3.87-6.62-1.66-1.87-3.62-3.31-5.87-4.33-2.25-1.02-4.73-1.53-7.44-1.53s-5.12,.51-7.38,1.53c-2.26,1.02-4.23,2.47-5.89,4.33-1.66,1.87-2.95,4.07-3.85,6.62-.91,2.54-1.36,5.34-1.36,8.38s.45,5.84,1.36,8.38c.91,2.54,2.19,4.75,3.85,6.62,1.66,1.87,3.62,3.31,5.89,4.33,2.26,1.02,4.72,1.53,7.38,1.53Z"/></g></g></g></g></svg>