<svg xmlns="http://www.w3.org/2000/svg" viewBox="0 0 815.2 814.78"><defs><style>.cls-1{fill:#fff;}.cls-2{fill:none;stroke:#fff;stroke-miterlimit:10;stroke-width:41px;}</style></defs><g id="Capa_2" data-name="Capa 2"><g id="logo"><path class="cls-1" d="M448,114.13a306.54,306.54,0,1,1-119.71,24.16A305.56,305.56,0,0,1,448,114.13m0-41C255.45,73.13,99.38,229.2,99.38,421.71S255.45,770.29,448,770.29,796.54,614.22,796.54,421.71,640.48,73.13,448,73.13Z"/><path class="cls-1" d="M98.16,41A57.16,57.16,0,1,1,41,98.16,57.22,57.22,0,0,1,98.16,41m0-41a98.16,98.16,0,1,0,98.16,98.16A98.16,98.16,0,0,0,98.16,0Z"/><line class="cls-2" x1="164.63" y1="163.98" x2="198.21" y2="197.56"/><line class="cls-2" x1="677.13" y1="676.53" x2="702.88" y2="702.28"/><path class="cls-1" d="M745.84,717.05a28.37,28.37,0,1,1-28.37,28.36,28.39,28.39,0,0,1,28.37-28.36m0-41a69.37,69.37,0,1,0,69.36,69.36,69.37,69.37,0,0,0-69.36-69.36Z"/><path class="cls-1" d="M588.28,571.46H245.14V489.37H605.38v-34.2H329.5a99.18,99.18,0,0,1,0-198.36H672.64v82.08H312.4v34.2H588.28a99.19,99.19,0,0,1,0,198.37Z"/></g></g></svg>